# xmcd
#
# Track frame offsets:
#       150
#       15672
#       45255
#       73169
#       81353
#       106300
#       121010
#       139724
#
# Disc length: 2048 seconds
#
# Revision: 0
# Processed by: cddbd v1.5.2PL0 Copyright (c) Steve Scherf et al.
# Submitted via: WhereIsIt 3.94
#
DISCID=6007fe08
DTITLE=Chamber Brothers - Feelin' the blues
DYEAR=2007
DGENRE=Soul
TTITLE0=Girls we love you
TTITLE1=I got a woman
TTITLE2=House of the rising sun
TTITLE3=Don't lose your girl
TTITLE4=Just a closer walk with thee
TTITLE5=Blues get off my shoulder
TTITLE6=Travel on my way
TTITLE7=Undecided
EXTD=
EXTT0=
EXTT1=
EXTT2=
EXTT3=
EXTT4=
EXTT5=
EXTT6=
EXTT7=
PLAYORDER=
